<mxfile host="app.diagrams.net" modified="2024-05-01T03:32:03.144Z" agent="Mozilla/5.0 (Windows NT 10.0; Win64; x64) AppleWebKit/537.36 (KHTML, like Gecko) Chrome/105.0.0.0 Safari/537.36" version="24.3.1" etag="s87Gi6Myezr3UHYLMzfX" type="github">
  <diagram name="第 1 页" id="s9_ls5E8kuGQ2dzO0YEM">
    <mxGraphModel>
      <root>
        <mxCell id="0" />
        <mxCell id="1" parent="0" />
      </root>
    </mxGraphModel>
  </diagram>
</mxfile>
